<?xml version="1.0" standalone="no"?>
<!DOCTYPE svg PUBLIC "-//W3C//DTD SVG 20010904//EN"
 "http://www.w3.org/TR/2001/REC-SVG-20010904/DTD/svg10.dtd">
<svg version="1.0" xmlns="http://www.w3.org/2000/svg"
 width="700.000000pt" height="700.000000pt" viewBox="0 0 700.000000 700.000000"
 preserveAspectRatio="xMidYMid meet">
<metadata>
Created by potrace 1.11, written by Peter Selinger 2001-2013
</metadata>
<g transform="translate(0.000000,700.000000) scale(0.100000,-0.100000)"
fill="#000000" stroke="none">
<path d="M716 6985 c-343 -69 -599 -309 -688 -645 l-23 -85 0 -2755 0 -2755
23 -85 c83 -315 317 -549 632 -632 l85 -23 2755 0 2755 0 85 23 c315 83 549
317 632 632 l23 85 0 2755 0 2755 -23 85 c-43 163 -125 303 -243 416 -112 106
-231 173 -384 216 l-80 23 -2740 2 c-2285 1 -2751 -1 -2809 -12z m2240 -909
c30 -82 54 -152 54 -156 0 -4 -33 -19 -73 -34 -238 -87 -410 -260 -492 -495
-55 -155 -56 -175 -65 -676 -6 -351 -12 -491 -24 -552 -37 -201 -99 -332 -220
-463 -57 -62 -160 -142 -223 -173 -24 -12 -43 -23 -43 -26 0 -4 35 -26 77 -51
48 -28 112 -80 168 -135 77 -76 99 -105 142 -190 103 -203 113 -270 123 -845
8 -487 9 -497 61 -655 78 -241 255 -423 495 -511 41 -15 74 -30 74 -34 0 -4
-24 -74 -54 -156 l-54 -149 -31 3 c-52 4 -241 71 -356 127 -155 75 -255 145
-366 255 -167 164 -256 331 -311 585 -17 79 -21 148 -27 565 -8 441 -10 481
-30 555 -70 263 -228 393 -517 426 l-104 13 0 196 0 196 102 12 c57 7 124 19
149 26 145 44 262 141 322 266 66 141 70 172 78 690 7 504 11 543 68 717 120
366 405 627 851 776 121 40 140 45 159 43 7 0 36 -63 67 -150z m1315 114 c526
-176 809 -464 911 -925 17 -79 21 -148 28 -565 9 -499 12 -540 59 -659 80
-202 248 -311 514 -336 l77 -7 0 -198 0 -198 -77 -7 c-302 -28 -476 -167 -544
-436 -19 -77 -22 -124 -29 -559 -9 -474 -11 -507 -49 -650 -88 -327 -318 -587
-667 -751 -136 -65 -374 -144 -374 -126 0 2 -25 71 -55 153 -30 82 -55 152
-55 156 0 3 24 14 53 24 237 77 415 248 507 485 65 168 72 237 80 749 6 361
11 481 23 535 58 262 196 456 415 583 34 20 62 39 62 42 0 3 -32 23 -71 45
-150 84 -296 252 -357 412 -61 158 -64 186 -72 693 -8 489 -13 551 -61 705
-80 260 -271 456 -526 539 -29 10 -53 21 -53 24 0 4 25 74 55 156 30 82 55
151 55 153 0 9 43 -1 151 -37z"/>
</g>
</svg>
